<svg width="670" height="401" viewBox="0 0 670 401" fill="none" xmlns="http://www.w3.org/2000/svg">
<g clip-path="url(#clip0_248_380)">
<path d="M512.968 396.037C504.39 388.789 499.18 377.339 500.546 366.192C501.912 355.045 510.375 344.798 521.353 342.431C532.331 340.064 544.845 346.616 548.179 357.34C550.014 336.665 552.129 315.124 563.121 297.518C573.074 281.575 590.313 270.168 608.996 268.127C627.679 266.087 647.349 273.794 659.001 288.541C670.653 303.287 673.506 324.725 665.345 341.655C659.334 354.126 648.258 363.408 636.654 370.959C599.155 395.154 554.181 404.993 510.005 398.666L512.968 396.037Z" fill="#F2F2F2"/>
<path d="M640.526 274.222C625.11 286.778 610.968 300.821 598.304 316.148C578.484 340.053 562.446 366.855 550.748 395.62C549.891 397.718 553.299 398.632 554.145 396.556C573.286 349.808 603.841 308.604 643.018 276.713C644.777 275.281 642.271 272.801 640.526 274.222Z" fill="white"/>
<path d="M215.684 394.067C227.465 384.112 234.622 368.386 232.745 353.076C230.868 337.766 219.244 323.691 204.166 320.44C189.088 317.189 171.9 326.189 167.321 340.918C164.8 312.521 161.896 282.934 146.798 258.752C133.128 236.855 109.451 221.187 83.7894 218.384C58.1283 215.581 31.1105 226.167 15.1066 246.421C-0.897258 266.675 -4.81574 296.12 6.39296 319.374C14.65 336.504 29.8624 349.252 45.8013 359.623C96.6516 392.711 159.731 406.511 219.753 397.678" fill="#F2F2F2"/>
<path d="M40.4824 226.754C61.656 244 81.0805 263.289 98.475 284.341C115.872 305.371 131.189 328.039 144.209 352.027C151.487 365.483 158.025 379.326 163.793 393.495C164.97 396.377 160.289 397.631 159.126 394.781C148.909 369.802 136.267 345.884 121.384 323.371C106.572 300.939 89.6202 279.997 70.7651 260.839C60.1005 250.008 48.8485 239.772 37.06 230.177C34.6437 228.209 38.086 224.803 40.4824 226.754Z" fill="white"/>
<path d="M480.937 399.69H199.845V111.282C199.845 49.9206 249.765 0 311.126 0H369.655C431.016 0 480.937 49.9206 480.937 111.282V399.69Z" fill="#F2F2F2"/>
<path d="M422.408 399.69H199.845V111.282C199.783 87.7695 207.229 64.8516 221.097 45.8647C221.608 45.1679 222.118 44.4801 222.644 43.7999C229.352 35.0021 237.334 27.2541 246.328 20.8115C246.836 20.4419 247.346 20.0786 247.864 19.7154C255.389 14.5074 263.53 10.25 272.101 7.04007C272.61 6.84716 273.128 6.65388 273.646 6.46849C281.397 3.70229 289.433 1.80746 297.603 0.818982C298.11 0.749788 298.63 0.695642 299.15 0.641495C307.112 -0.209844 315.142 -0.209844 323.105 0.641495C323.623 0.695642 324.143 0.749781 324.656 0.819723C332.824 1.80827 340.857 3.70287 348.607 6.46852C349.125 6.65391 349.643 6.84718 350.154 7.04047C358.618 10.2099 366.664 14.4038 374.109 19.5285C374.626 19.8839 375.144 20.2471 375.654 20.6104C380.696 24.2089 385.431 28.2179 389.812 32.5964C393.325 36.1085 396.599 39.8521 399.611 43.8022C400.135 44.4802 400.645 45.168 401.155 45.8636C415.024 64.8507 422.469 87.769 422.408 111.282V399.69Z" fill="#CCCCCC"/>
<path d="M404.31 270.695C411.116 270.695 416.632 265.179 416.632 258.374C416.632 251.568 411.116 246.052 404.31 246.052C397.505 246.052 391.989 251.568 391.989 258.374C391.989 265.179 397.505 270.695 404.31 270.695Z" fill="#0060AE"/>
<path d="M457.91 391.051H448.468L443.976 354.634L457.911 354.635L457.91 391.051Z" fill="#FFB8B8"/>
<path d="M441.724 388.353H459.932V399.818H430.259C430.259 398.313 430.556 396.822 431.132 395.431C431.708 394.04 432.553 392.776 433.617 391.711C434.682 390.647 435.946 389.802 437.337 389.226C438.728 388.65 440.218 388.353 441.724 388.353Z" fill="#2F2E41"/>
<path d="M504.887 391.051H495.445L490.953 354.634L504.888 354.635L504.887 391.051Z" fill="#FFB8B8"/>
<path d="M488.701 388.353H506.909V399.818H477.236C477.236 398.313 477.533 396.822 478.109 395.431C478.685 394.04 479.53 392.776 480.594 391.711C481.659 390.647 482.923 389.802 484.314 389.226C485.705 388.65 487.195 388.353 488.701 388.353Z" fill="#2F2E41"/>
<path d="M410.546 260.815C409.867 259.814 409.416 258.676 409.224 257.482C409.032 256.288 409.104 255.066 409.435 253.903C409.766 252.74 410.348 251.663 411.14 250.749C411.933 249.836 412.916 249.106 414.02 248.614L446.115 160.153L461.908 168.772L425.262 253.308C425.967 255.218 425.947 257.321 425.206 259.217C424.464 261.114 423.053 262.672 421.239 263.597C419.425 264.523 417.334 264.751 415.364 264.238C413.393 263.725 411.679 262.507 410.546 260.815Z" fill="#FFB8B8"/>
<path d="M500.064 277.437C499.015 276.835 498.11 276.011 497.414 275.022C496.718 274.033 496.247 272.903 496.034 271.712C495.822 270.522 495.873 269.299 496.184 268.13C496.496 266.962 497.059 265.875 497.836 264.948L487.893 171.372L505.866 172.193L509.998 264.237C511.469 265.645 512.373 267.544 512.538 269.573C512.703 271.603 512.118 273.623 510.894 275.25C509.669 276.877 507.89 277.998 505.894 278.401C503.898 278.804 501.824 278.461 500.064 277.437Z" fill="#FFB8B8"/>
<path d="M471.392 143.768C481.838 143.768 490.307 135.299 490.307 124.853C490.307 114.407 481.838 105.938 471.392 105.938C460.945 105.938 452.477 114.407 452.477 124.853C452.477 135.299 460.945 143.768 471.392 143.768Z" fill="#FFB8B8"/>
<path d="M499.943 256.155H442.918L442.987 255.711C443.089 255.048 453.15 189.143 445.73 167.582C444.985 165.463 445.051 163.144 445.914 161.07C446.777 158.997 448.376 157.316 450.404 156.351C461.01 151.357 481.369 145.207 498.552 160.132C501.08 162.364 503.055 165.154 504.319 168.281C505.583 171.408 506.103 174.787 505.837 178.149L499.943 256.155Z" fill="#0060AE"/>
<path d="M453.871 198.883L428.198 193.674L440.231 165.157C440.952 162.395 442.738 160.031 445.198 158.584C447.659 157.138 450.593 156.726 453.357 157.439C456.121 158.153 458.488 159.933 459.941 162.39C461.394 164.847 461.813 167.78 461.106 170.546L453.871 198.883Z" fill="#0060AE"/>
<path d="M486.751 208.553L485.208 173.173C484.038 166.522 487.845 160.235 493.7 159.207C499.557 158.183 505.276 162.796 506.452 169.496L512.253 202.555L486.751 208.553Z" fill="#0060AE"/>
<path d="M498.046 251.919C507.221 286.864 508.222 331.294 505.747 379.758L493.425 378.218L471.092 285.804L458.77 379.758L444.908 378.988C440.767 328.137 436.734 284.483 443.368 255.77L498.046 251.919Z" fill="#2F2E41"/>
<path d="M483.855 139.471C480.326 143.23 473.773 141.212 473.313 136.077C473.277 135.678 473.28 135.277 473.321 134.879C473.558 132.604 474.872 130.539 474.558 128.138C474.486 127.54 474.264 126.97 473.911 126.483C471.099 122.717 464.498 128.167 461.844 124.758C460.217 122.668 462.13 119.377 460.881 117.041C459.233 113.958 454.352 115.479 451.29 113.79C447.884 111.912 448.088 106.686 450.33 103.507C453.064 99.6309 457.859 97.5624 462.593 97.2643C467.327 96.9661 472.029 98.246 476.449 99.9685C481.471 101.926 486.451 104.63 489.542 109.046C493.3 114.416 493.662 121.636 491.782 127.915C490.639 131.735 486.736 136.401 483.855 139.471Z" fill="#2F2E41"/>
<path d="M646.882 400.185H78.3112C78.0684 400.185 77.8359 400.088 77.6645 399.916C77.4931 399.744 77.3969 399.511 77.3969 399.268C77.3969 399.026 77.4931 398.793 77.6645 398.621C77.8359 398.449 78.0684 398.352 78.3112 398.351H646.882C647.125 398.352 647.358 398.449 647.529 398.621C647.701 398.793 647.797 399.026 647.797 399.268C647.797 399.511 647.701 399.744 647.529 399.916C647.358 400.088 647.125 400.185 646.882 400.185Z" fill="#3F3D56"/>
<path d="M361.184 316.132H261.069C259.75 316.139 258.483 315.623 257.545 314.697C256.606 313.771 256.073 312.51 256.063 311.192V87.7279C256.073 86.4094 256.606 85.1488 257.545 84.2226C258.483 83.2964 259.75 82.7802 261.069 82.7873H361.184C362.502 82.7802 363.77 83.2964 364.708 84.2226C365.647 85.1488 366.179 86.4094 366.19 87.7279V311.192C366.179 312.51 365.647 313.771 364.708 314.697C363.77 315.623 362.502 316.139 361.184 316.132Z" fill="white"/>
<path d="M366.19 155.093H256.063V156.633H366.19V155.093Z" fill="#CCCCCC"/>
<path d="M366.575 242.971H256.448V244.512H366.575V242.971Z" fill="#CCCCCC"/>
<path d="M292.258 82.7874H290.718V316.902H292.258V82.7874Z" fill="#CCCCCC"/>
<path d="M330.764 82.7874H329.224V316.902H330.764V82.7874Z" fill="#CCCCCC"/>
</g>
<defs>
<clipPath id="clip0_248_380">
<rect width="670" height="400.566" fill="white"/>
</clipPath>
</defs>
</svg>
