<svg width="40" height="40" viewBox="0 0 40 40" fill="none" xmlns="http://www.w3.org/2000/svg">
<path d="M9.36008 33.3332C8.5923 33.3332 7.95175 33.0765 7.43841 32.5632C6.92508 32.0498 6.66786 31.4087 6.66675 30.6398V9.35984C6.66675 8.59206 6.92397 7.9515 7.43841 7.43817C7.95286 6.92484 8.59341 6.66762 9.36008 6.6665H20.0317V8.33317H9.36008C9.10342 8.33317 8.86786 8.43984 8.65341 8.65317C8.43897 8.8665 8.3323 9.10206 8.33341 9.35984V30.6415C8.33341 30.8971 8.44008 31.1321 8.65341 31.3465C8.86675 31.5609 9.10175 31.6676 9.35841 31.6665H20.0317V33.3332H9.36008ZM27.4367 25.8982L26.2667 24.6982L30.1317 20.8332H15.3201V19.1665H30.1317L26.2651 15.2998L27.4351 14.1032L33.3334 19.9998L27.4367 25.8982Z" fill="white"/>
</svg>
