<svg width="670" height="626" viewBox="0 0 670 626" fill="none" xmlns="http://www.w3.org/2000/svg">
<g clip-path="url(#clip0_248_673)">
<path d="M315.87 5.21852L295.368 16.4048L42.7803 154.222L22.2784 165.408C12.3302 170.851 4.94711 180.017 1.74887 190.896C-1.44937 201.776 -0.201573 213.479 5.21851 223.44L193.315 568.177C198.757 578.125 207.923 585.508 218.803 588.706C229.682 591.905 241.386 590.657 251.346 585.237L251.399 585.208L544.884 425.076L544.937 425.047C554.885 419.605 562.269 410.438 565.467 399.559C568.665 388.68 567.417 376.976 561.997 367.016L373.901 22.2785C368.459 12.3303 359.292 4.94723 348.413 1.74896C337.534 -1.4493 325.83 -0.201536 315.87 5.21852Z" fill="#F2F2F2"/>
<path d="M321.768 16.027L297.485 29.2764L52.4586 162.968L28.1758 176.217C21.0915 180.093 15.8338 186.62 13.5562 194.368C11.2787 202.115 12.1673 210.449 16.027 217.542L204.123 562.28C207.999 569.364 214.526 574.622 222.274 576.899C230.021 579.177 238.356 578.288 245.449 574.428L245.501 574.399L538.987 414.267L539.04 414.238C546.125 410.363 551.382 403.835 553.66 396.088C555.937 388.34 555.049 380.006 551.189 372.913L363.093 28.176C359.217 21.0917 352.69 15.834 344.942 13.5564C337.195 11.2788 328.861 12.1673 321.768 16.027Z" fill="white"/>
<path d="M325.816 123.034L216.357 182.757C214.699 183.661 212.749 183.87 210.937 183.338C209.125 182.805 207.598 181.574 206.694 179.916C205.789 178.258 205.58 176.308 206.113 174.495C206.645 172.683 207.876 171.157 209.535 170.252L318.993 110.529C320.652 109.624 322.601 109.415 324.414 109.948C326.226 110.481 327.752 111.712 328.657 113.37C329.562 115.028 329.771 116.978 329.238 118.79C328.705 120.602 327.474 122.129 325.816 123.034Z" fill="#F2F2F2"/>
<path d="M363.121 130.063L227.871 203.858C226.213 204.763 224.263 204.972 222.451 204.439C220.638 203.907 219.112 202.676 218.207 201.017C217.302 199.359 217.093 197.409 217.626 195.597C218.159 193.785 219.39 192.258 221.048 191.354L356.298 117.558C357.119 117.11 358.02 116.828 358.95 116.729C359.88 116.629 360.821 116.714 361.718 116.977C362.616 117.241 363.452 117.679 364.18 118.266C364.908 118.853 365.514 119.578 365.962 120.399C366.41 121.22 366.692 122.122 366.791 123.052C366.891 123.982 366.806 124.922 366.543 125.82C366.279 126.717 365.841 127.554 365.254 128.282C364.667 129.01 363.942 129.615 363.121 130.063Z" fill="#F2F2F2"/>
<path d="M171.358 157.896L70.4432 212.957C69.6488 213.391 69.0592 214.122 68.8039 214.991C68.5487 215.859 68.6487 216.793 69.082 217.588L112.054 296.346C112.488 297.14 113.219 297.73 114.087 297.985C114.956 298.24 115.89 298.14 116.684 297.707L217.599 242.646C218.394 242.212 218.983 241.481 219.238 240.612C219.494 239.744 219.394 238.81 218.96 238.015L175.988 159.257C175.555 158.463 174.823 157.873 173.955 157.618C173.087 157.363 172.153 157.463 171.358 157.896Z" fill="#F2F2F2"/>
<path d="M380.127 222.965L231.66 303.972C230.839 304.42 229.937 304.701 229.007 304.801C228.077 304.901 227.137 304.816 226.239 304.553C225.342 304.289 224.506 303.851 223.777 303.264C223.049 302.677 222.444 301.952 221.996 301.131C221.548 300.31 221.266 299.408 221.166 298.478C221.067 297.548 221.151 296.608 221.415 295.71C221.679 294.813 222.117 293.976 222.704 293.248C223.291 292.52 224.016 291.915 224.837 291.467L373.304 210.46C374.962 209.555 376.912 209.346 378.724 209.879C380.537 210.412 382.063 211.643 382.968 213.301C383.873 214.959 384.082 216.909 383.549 218.721C383.016 220.533 381.785 222.06 380.127 222.965Z" fill="#F2F2F2"/>
<path d="M417.432 229.994L243.173 325.073C241.515 325.978 239.565 326.187 237.753 325.654C235.941 325.121 234.414 323.891 233.51 322.232C232.605 320.574 232.396 318.624 232.929 316.812C233.461 315 234.692 313.473 236.35 312.569L410.609 217.49C412.267 216.585 414.217 216.376 416.029 216.909C417.841 217.441 419.368 218.672 420.272 220.33C421.177 221.989 421.386 223.938 420.853 225.751C420.321 227.563 419.09 229.089 417.432 229.994Z" fill="#F2F2F2"/>
<path d="M175.116 370.314C191.805 370.314 205.334 356.785 205.334 340.096C205.334 323.408 191.805 309.879 175.116 309.879C158.428 309.879 144.899 323.408 144.899 340.096C144.899 356.785 158.428 370.314 175.116 370.314Z" fill="#F2F2F2"/>
<path d="M627.229 147.267H292.779C281.44 147.279 270.568 151.79 262.55 159.808C254.532 167.826 250.021 178.698 250.009 190.037V582.751C250.021 594.091 254.532 604.962 262.55 612.98C270.568 620.999 281.44 625.509 292.779 625.522H627.229C638.569 625.509 649.44 620.999 657.459 612.98C665.477 604.962 669.987 594.091 670 582.751V190.037C669.987 178.698 665.477 167.826 657.459 159.808C649.44 151.79 638.569 147.279 627.229 147.267Z" fill="#E6E6E6"/>
<path d="M627.23 159.579H292.779C284.704 159.588 276.962 162.8 271.252 168.51C265.542 174.22 262.33 181.962 262.321 190.037V582.751C262.33 590.826 265.542 598.568 271.252 604.278C276.962 609.988 284.704 613.2 292.779 613.209H627.23C635.305 613.2 643.047 609.988 648.757 604.278C654.466 598.568 657.678 590.826 657.687 582.751V190.037C657.678 181.962 654.467 174.22 648.757 168.51C643.047 162.8 635.305 159.588 627.23 159.579Z" fill="white"/>
<path d="M579.531 255.452H454.839C452.95 255.452 451.139 254.702 449.803 253.366C448.467 252.031 447.717 250.219 447.717 248.33C447.717 246.441 448.467 244.629 449.803 243.294C451.139 241.958 452.95 241.208 454.839 241.208H579.531C580.467 241.206 581.394 241.39 582.259 241.747C583.124 242.105 583.911 242.629 584.573 243.291C585.235 243.952 585.76 244.738 586.119 245.602C586.477 246.467 586.662 247.394 586.662 248.33C586.662 249.266 586.477 250.193 586.119 251.057C585.76 251.922 585.235 252.708 584.573 253.369C583.911 254.031 583.124 254.555 582.259 254.913C581.394 255.27 580.467 255.454 579.531 255.452Z" fill="#0060AE"/>
<path d="M608.911 279.491H454.839C452.95 279.491 451.139 278.74 449.803 277.405C448.467 276.069 447.717 274.257 447.717 272.368C447.717 270.479 448.467 268.668 449.803 267.332C451.139 265.996 452.95 265.246 454.839 265.246H608.911C610.8 265.246 612.612 265.996 613.948 267.332C615.284 268.668 616.034 270.479 616.034 272.368C616.034 274.257 615.284 276.069 613.948 277.405C612.612 278.74 610.8 279.491 608.911 279.491Z" fill="#0060AE"/>
<path d="M427.245 212.076H312.286C311.381 212.076 310.513 212.436 309.873 213.076C309.233 213.716 308.873 214.584 308.873 215.489V305.207C308.873 306.112 309.233 306.98 309.873 307.62C310.513 308.26 311.381 308.62 312.286 308.62H427.245C428.15 308.62 429.018 308.26 429.658 307.62C430.297 306.98 430.657 306.112 430.657 305.207V215.489C430.657 214.584 430.297 213.716 429.657 213.076C429.018 212.436 428.15 212.076 427.245 212.076Z" fill="#E6E6E6"/>
<path d="M343.82 267.169C343.867 274.743 341.076 282.06 335.995 287.678C330.969 293.194 323.485 296.853 315.934 295.339C308.98 293.945 303.329 287.868 304.034 280.516C304.151 278.923 304.614 277.375 305.391 275.98C306.167 274.585 307.238 273.375 308.53 272.437C309.822 271.498 311.303 270.852 312.87 270.544C314.437 270.237 316.052 270.274 317.602 270.655C324.208 272.369 326.84 281.889 321.336 286.358C320.015 287.43 318.117 285.555 319.45 284.473C323.089 281.519 321.965 275.056 317.573 273.435C312.459 271.548 307.042 275.607 306.674 280.835C306.238 287.033 310.986 291.701 316.809 292.8C323.109 293.989 329.354 290.765 333.623 286.314C338.514 281.147 341.214 274.285 341.154 267.169C341.166 266.824 341.311 266.496 341.56 266.256C341.809 266.016 342.141 265.882 342.487 265.882C342.833 265.882 343.165 266.016 343.414 266.256C343.662 266.496 343.808 266.824 343.82 267.169Z" fill="#2F2E41"/>
<path d="M369.855 284.119C396.124 284.119 417.419 262.823 417.419 236.554C417.419 210.285 396.124 188.989 369.855 188.989C343.585 188.989 322.29 210.285 322.29 236.554C322.29 262.823 343.585 284.119 369.855 284.119Z" fill="#0060AE"/>
<path d="M367.421 256.849L367.372 255.072C370.678 254.98 373.594 254.772 375.784 253.172C376.405 252.692 376.916 252.085 377.281 251.39C377.646 250.696 377.858 249.931 377.901 249.147C377.939 248.669 377.867 248.188 377.689 247.741C377.511 247.295 377.233 246.896 376.876 246.575C375.422 245.347 373.082 245.744 371.377 246.526L369.906 247.201L372.726 226.59L374.487 226.832L372.088 244.363C374.406 243.682 376.553 243.976 378.023 245.217C378.588 245.71 379.031 246.327 379.318 247.02C379.605 247.712 379.728 248.462 379.677 249.21C379.625 250.262 379.344 251.291 378.852 252.223C378.361 253.156 377.672 253.97 376.833 254.607C374.018 256.664 370.36 256.767 367.421 256.849Z" fill="#2F2E41"/>
<path d="M392.769 228.344H383.196V230.121H392.769V228.344Z" fill="#2F2E41"/>
<path d="M362.552 228.344H352.979V230.121H362.552V228.344Z" fill="#2F2E41"/>
<path d="M343.507 308.62C347.072 306.358 350.926 304.585 354.963 303.35C354.578 301.98 354.584 300.53 354.981 299.164C355.517 297.438 356.597 295.931 358.059 294.869C359.521 293.807 361.288 293.247 363.095 293.271H374.684C376.494 293.248 378.264 293.81 379.729 294.873C381.194 295.937 382.277 297.444 382.817 299.173C383.213 300.536 383.219 301.983 382.834 303.35C386.871 304.587 390.724 306.359 394.29 308.62H343.507Z" fill="#2F2E41"/>
<path d="M424.338 218.901C423.472 217.852 422.406 216.985 421.201 216.351C420.145 215.799 418.971 215.51 417.78 215.506C416.143 215.526 414.554 216.061 413.238 217.035C409.621 219.595 407.115 225.114 407.115 231.504C407.115 239.52 411.061 246.168 416.189 247.323C416.711 247.44 417.244 247.5 417.78 247.501C423.654 247.501 428.445 240.329 428.445 231.504C428.445 226.385 426.836 221.825 424.338 218.901Z" fill="#3F3D56"/>
<path d="M326.648 216.653H326.639C325.451 215.915 324.083 215.518 322.684 215.506C321.492 215.51 320.319 215.799 319.262 216.351C318.058 216.985 316.992 217.852 316.125 218.901L316.116 218.91C313.628 221.834 312.019 226.393 312.019 231.504C312.019 238.4 314.934 244.284 319.022 246.532C320.142 247.159 321.401 247.493 322.684 247.501C322.969 247.501 323.254 247.483 323.537 247.448H323.546C329.021 246.79 333.349 239.893 333.349 231.504C333.349 224.785 330.567 219.017 326.648 216.653Z" fill="#3F3D56"/>
<path d="M319.689 245.003C319.901 245.003 320.109 244.952 320.298 244.856C320.486 244.759 320.648 244.619 320.772 244.447C320.895 244.275 320.976 244.076 321.007 243.867C321.039 243.658 321.02 243.444 320.952 243.243C318.405 235.667 317.638 227.604 318.713 219.683C319.787 211.762 322.674 204.196 327.148 197.572C331.622 190.948 337.564 185.444 344.511 181.49C351.458 177.535 359.223 175.236 367.203 174.77C375.183 174.305 383.163 175.685 390.522 178.805C397.882 181.925 404.423 186.7 409.637 192.759C414.852 198.818 418.599 205.997 420.587 213.74C422.575 221.482 422.752 229.579 421.102 237.4C421.029 237.746 421.097 238.107 421.29 238.403C421.483 238.699 421.786 238.907 422.132 238.98C422.478 239.053 422.838 238.985 423.135 238.792C423.431 238.599 423.638 238.296 423.711 237.95C425.447 229.727 425.262 221.214 423.172 213.074C421.082 204.933 417.143 197.384 411.661 191.013C406.179 184.643 399.302 179.622 391.564 176.342C383.826 173.061 375.436 171.61 367.046 172.099C358.655 172.589 350.491 175.007 343.187 179.165C335.884 183.324 329.637 189.11 324.934 196.075C320.23 203.041 317.196 210.997 316.067 219.325C314.939 227.653 315.746 236.13 318.426 244.096C318.515 244.36 318.685 244.59 318.912 244.753C319.138 244.915 319.41 245.003 319.689 245.003Z" fill="#3F3D56"/>
<path d="M393.749 205.736C395.632 208.307 394.704 211.772 392.719 213.988C390.137 216.873 386.019 217.055 382.444 216.519C378.432 215.919 374.176 214.039 370.114 215.306C366.652 216.385 364.183 219.525 360.586 220.314C357.396 221.014 353.582 220.088 352.464 216.688C351.927 215.054 354.5 214.354 355.035 215.979C355.758 218.179 358.882 218.135 360.671 217.526C363.539 216.549 365.749 214.174 368.568 213.04C371.891 211.702 375.496 212.306 378.88 213.068C382.069 213.786 385.739 214.851 388.916 213.509C391.267 212.517 393.138 209.39 391.447 207.082C390.431 205.696 392.744 204.365 393.749 205.736Z" fill="#2F2E41"/>
<path d="M579.344 369.188H410.215C409.279 369.188 408.353 369.004 407.489 368.646C406.625 368.288 405.84 367.764 405.178 367.102C404.517 366.441 403.992 365.656 403.634 364.791C403.276 363.927 403.092 363.001 403.092 362.066C403.092 361.13 403.276 360.204 403.634 359.34C403.992 358.476 404.517 357.691 405.178 357.029C405.84 356.368 406.625 355.843 407.489 355.486C408.353 355.128 409.279 354.943 410.215 354.943H579.344C581.231 354.945 583.041 355.697 584.375 357.032C585.709 358.368 586.458 360.178 586.458 362.066C586.458 363.953 585.709 365.764 584.375 367.099C583.041 368.435 581.231 369.186 579.344 369.188Z" fill="#E6E6E6"/>
<path d="M608.724 393.227H410.214C409.278 393.228 408.351 393.044 407.486 392.687C406.621 392.33 405.835 391.805 405.173 391.144C404.511 390.482 403.985 389.697 403.627 388.832C403.268 387.967 403.084 387.04 403.084 386.104C403.084 385.168 403.268 384.242 403.627 383.377C403.985 382.512 404.511 381.727 405.173 381.065C405.835 380.404 406.621 379.879 407.486 379.522C408.351 379.164 409.278 378.981 410.214 378.982H608.724C609.66 378.981 610.587 379.164 611.452 379.522C612.317 379.879 613.103 380.404 613.765 381.065C614.427 381.727 614.953 382.512 615.311 383.377C615.67 384.242 615.854 385.168 615.854 386.104C615.854 387.04 615.67 387.967 615.311 388.832C614.953 389.697 614.427 390.482 613.765 391.144C613.103 391.805 612.317 392.33 611.452 392.687C610.587 393.044 609.66 393.228 608.724 393.227Z" fill="#E6E6E6"/>
<path d="M579.344 455.586H410.215C408.326 455.586 406.514 454.836 405.178 453.5C403.842 452.164 403.092 450.353 403.092 448.464C403.092 446.575 403.842 444.763 405.178 443.427C406.514 442.091 408.326 441.341 410.215 441.341H579.344C581.233 441.341 583.044 442.091 584.38 443.427C585.716 444.763 586.466 446.575 586.466 448.464C586.466 450.353 585.716 452.164 584.38 453.5C583.044 454.836 581.233 455.586 579.344 455.586Z" fill="#E6E6E6"/>
<path d="M608.724 479.624H410.215C408.326 479.624 406.514 478.874 405.178 477.538C403.842 476.203 403.092 474.391 403.092 472.502C403.092 470.613 403.842 468.801 405.178 467.466C406.514 466.13 408.326 465.379 410.215 465.379H608.724C610.613 465.379 612.424 466.13 613.76 467.466C615.096 468.801 615.846 470.613 615.846 472.502C615.846 474.391 615.096 476.203 613.76 477.538C612.424 478.874 610.613 479.624 608.724 479.624Z" fill="#E6E6E6"/>
<path d="M343.276 404.035C359.965 404.035 373.494 390.506 373.494 373.818C373.494 357.129 359.965 343.601 343.276 343.601C326.588 343.601 313.059 357.129 313.059 373.818C313.059 390.506 326.588 404.035 343.276 404.035Z" fill="#E6E6E6"/>
<path d="M343.276 491.132C359.965 491.132 373.494 477.603 373.494 460.915C373.494 444.226 359.965 430.697 343.276 430.697C326.588 430.697 313.059 444.226 313.059 460.915C313.059 477.603 326.588 491.132 343.276 491.132Z" fill="#E6E6E6"/>
<path d="M579.344 542.683H410.215C408.326 542.683 406.514 541.932 405.178 540.597C403.842 539.261 403.092 537.449 403.092 535.56C403.092 533.671 403.842 531.86 405.178 530.524C406.514 529.188 408.326 528.438 410.215 528.438H579.344C581.233 528.438 583.044 529.188 584.38 530.524C585.716 531.86 586.466 533.671 586.466 535.56C586.466 537.449 585.716 539.261 584.38 540.597C583.044 541.932 581.233 542.683 579.344 542.683Z" fill="#E6E6E6"/>
<path d="M608.724 566.721H410.215C408.326 566.721 406.514 565.971 405.178 564.635C403.842 563.299 403.092 561.488 403.092 559.599C403.092 557.71 403.842 555.898 405.178 554.562C406.514 553.226 408.326 552.476 410.215 552.476H608.724C610.613 552.476 612.424 553.226 613.76 554.562C615.096 555.898 615.846 557.71 615.846 559.599C615.846 561.488 615.096 563.299 613.76 564.635C612.424 565.971 610.613 566.721 608.724 566.721Z" fill="#E6E6E6"/>
<path d="M343.276 578.228C359.965 578.228 373.494 564.7 373.494 548.011C373.494 531.323 359.965 517.794 343.276 517.794C326.588 517.794 313.059 531.323 313.059 548.011C313.059 564.7 326.588 578.228 343.276 578.228Z" fill="#E6E6E6"/>
</g>
<defs>
<clipPath id="clip0_248_673">
<rect width="670" height="625.522" fill="white"/>
</clipPath>
</defs>
</svg>
