<?xml version="1.0" encoding="UTF-8"?>
<svg version="1.1" xmlns="http://www.w3.org/2000/svg" width="105" height="97">
<path d="M0 0 C4.76547528 2.74900971 8.51082381 6.42248571 11.5625 11 C11.5625 11.66 11.5625 12.32 11.5625 13 C12.655625 12.9175 13.74875 12.835 14.875 12.75 C18.5625 13 18.5625 13 20.26098633 14.52636719 C22.04396672 17.91506675 22.04114102 21.08515425 22.07421875 24.828125 C22.09216995 25.57713074 22.11012115 26.32613647 22.12861633 27.09783936 C22.18264543 29.48183624 22.21659003 31.8656338 22.25 34.25 C22.28317975 35.86981936 22.31767003 37.48961244 22.35351562 39.109375 C22.43836716 43.07277266 22.50521289 47.03611197 22.5625 51 C23.34351074 50.35095703 24.12452148 49.70191406 24.92919922 49.03320312 C27.55761193 47.00377414 28.47234402 46.44956618 31.6875 46.5 C35.5625 47 35.5625 47 37.5625 48.625 C38.8806446 51.75559341 39.11264903 53.6303372 38.5625 57 C34.70192815 61.42918321 30.08799776 64.68081762 25.3125 68.0625 C24.13627075 68.90361328 24.13627075 68.90361328 22.9362793 69.76171875 C20.48244451 71.51365122 18.02338734 73.25799064 15.5625 75 C14.77504395 75.55800293 13.98758789 76.11600586 13.17626953 76.69091797 C4.28951898 82.98375852 4.28951898 82.98375852 0.42041016 85.671875 C-0.83228265 86.56736105 -2.06201436 87.4957468 -3.26806641 88.453125 C-6.02163898 90.60107753 -7.93452038 91.8907435 -11.38671875 92.640625 C-15.80019011 91.71385252 -18.69433725 89.44180873 -22.25 86.75 C-23.76008605 85.64407967 -25.2705126 84.53862415 -26.78125 83.43359375 C-27.55082031 82.86366699 -28.32039063 82.29374023 -29.11328125 81.70654297 C-32.07563035 79.53145681 -35.08192767 77.42356905 -38.09448242 75.31884766 C-43.927438 71.24258354 -49.72246041 67.11524696 -55.4375 62.875 C-56.38625 62.17117187 -57.335 61.46734375 -58.3125 60.7421875 C-60.4375 59 -60.4375 59 -61.4375 57 C-61.7180537 53.7736324 -61.70539202 51.59881746 -60.375 48.625 C-58.4375 47 -58.4375 47 -55.0625 46.5625 C-51.3016466 47.0163961 -49.55607238 47.97989384 -46.4375 50 C-46.45321045 49.08710205 -46.4689209 48.1742041 -46.48510742 47.23364258 C-46.5363697 43.8323799 -46.57391439 40.43153037 -46.60229492 37.0300293 C-46.61734066 35.56056218 -46.63778238 34.09113966 -46.66381836 32.62182617 C-46.70038955 30.5042823 -46.71726801 28.38733435 -46.73046875 26.26953125 C-46.7461792 24.99698486 -46.76188965 23.72443848 -46.77807617 22.41333008 C-46.41151799 18.73960254 -45.74285284 16.86194374 -43.4375 14 C-42.344375 13.731875 -41.25125 13.46375 -40.125 13.1875 C-35.53545575 11.70951117 -34.65071448 9.88882517 -32.046875 6.0390625 C-24.6744736 -3.30169849 -10.37401321 -4.75608606 0 0 Z M-23.75 18.625 C-25.90587947 22.93675894 -26.15622817 26.26691205 -25.4375 31 C-23.68982015 35.13924176 -21.24345454 37.63185051 -17.4375 40 C-13.97095186 41.13848739 -10.95535898 41.5401526 -7.47265625 40.30078125 C-4.00831114 38.44775945 -1.16108242 36.54291942 0.5625 33 C1.64499128 28.57700828 1.92562421 25.11073289 0.5 20.75 C-2.23294065 16.87098747 -4.75650052 13.50120978 -9.65234375 12.5859375 C-16.01695816 12.35295661 -19.49695083 13.79721446 -23.75 18.625 Z M4.375 48.8125 C-1.85829502 53.66061835 -7.8568986 55.53010894 -15.69921875 54.78515625 C-21.59173639 53.70537553 -26.37939056 51.13291885 -31.4375 48 C-32.58758742 52.73523647 -33.38724722 57.41222674 -31.4375 62 C-26.10125334 67.91614283 -18.53293634 72.45228183 -11.4375 76 C0.32528058 70.28571091 0.32528058 70.28571091 8.46240234 60.81396484 C9.22589434 56.08773301 8.58133739 51.64137032 7.5625 47 C6.21736534 46.89366369 6.21736534 46.89366369 4.375 48.8125 Z " fill="#3CB4D1" transform="translate(62.4375,3)"/>
<path d="M0 0 C4.23983766 0.57489324 6.41547249 1.78661134 9.6875 4.5 C9.6875 5.16 9.6875 5.82 9.6875 6.5 C10.368125 6.726875 11.04875 6.95375 11.75 7.1875 C15.48364324 8.85572357 18.40913421 11.05729608 21.6875 13.5 C22.0175 9.21 22.3475 4.92 22.6875 0.5 C23.0175 0.5 23.3475 0.5 23.6875 0.5 C23.49994141 1.91539063 23.49994141 1.91539063 23.30859375 3.359375 C22.85625753 10.93946298 22.85625753 10.93946298 26.37109375 17.37207031 C31.62692759 21.7837409 37.55412579 25.4333129 43.6875 28.5 C62.31084013 16.36716162 62.31084013 16.36716162 79.8125 2.75390625 C83.54896378 -0.17535951 83.54896378 -0.17535951 86.875 -0.0625 C90.6875 0.5 90.6875 0.5 92.6875 2.125 C94.0056446 5.25559341 94.23764903 7.1303372 93.6875 10.5 C89.82692815 14.92918321 85.21299776 18.18081762 80.4375 21.5625 C79.26127075 22.40361328 79.26127075 22.40361328 78.0612793 23.26171875 C75.60744451 25.01365122 73.14838734 26.75799064 70.6875 28.5 C69.90004395 29.05800293 69.11258789 29.61600586 68.30126953 30.19091797 C59.41451898 36.48375852 59.41451898 36.48375852 55.54541016 39.171875 C54.29271735 40.06736105 53.06298564 40.9957468 51.85693359 41.953125 C49.10336102 44.10107753 47.19047962 45.3907435 43.73828125 46.140625 C39.32480989 45.21385252 36.43066275 42.94180873 32.875 40.25 C31.36491395 39.14407967 29.8544874 38.03862415 28.34375 36.93359375 C27.57417969 36.36366699 26.80460937 35.79374023 26.01171875 35.20654297 C23.04936965 33.03145681 20.04307233 30.92356905 17.03051758 28.81884766 C11.197562 24.74258354 5.40253959 20.61524696 -0.3125 16.375 C-1.26125 15.67117187 -2.21 14.96734375 -3.1875 14.2421875 C-5.3125 12.5 -5.3125 12.5 -6.3125 10.5 C-6.5930537 7.2736324 -6.58039202 5.09881746 -5.25 2.125 C-3.3125 0.5 -3.3125 0.5 0 0 Z " fill="#57B9D0" transform="translate(7.3125,49.5)"/>
<path d="M0 0 C6.37116519 4.69873433 10.07225632 10.02328922 12.1875 17.61328125 C12.5390625 20.05078125 12.5390625 20.05078125 12.1875 22.61328125 C10.24609375 25.0078125 10.24609375 25.0078125 7.625 27.42578125 C4.45545855 30.43483959 1.39371882 33.40782199 -1.4375 36.73828125 C-5.01225984 40.91878799 -8.87919344 44.77192212 -12.8125 48.61328125 C-17.21075313 46.9811584 -19.82364958 43.63782258 -22.875 40.23828125 C-23.40416016 39.66078125 -23.93332031 39.08328125 -24.47851562 38.48828125 C-27.07871548 35.63034515 -29.56845785 32.76581105 -31.8125 29.61328125 C-34.05321094 30.61773788 -35.69004985 31.4908311 -37.4375 33.23828125 C-38.118125 33.91890625 -38.118125 33.91890625 -38.8125 34.61328125 C-39.4725 34.61328125 -40.1325 34.61328125 -40.8125 34.61328125 C-43.59712982 26.2593918 -41.58646251 17.33228213 -38.125 9.48828125 C-35.13927299 3.85963292 -30.02727927 -0.66255578 -24.015625 -2.91015625 C-15.66811507 -4.71582329 -7.4358296 -4.34164393 0 0 Z M-26.125 17.23828125 C-28.28087947 21.55004019 -28.53122817 24.8801933 -27.8125 29.61328125 C-26.06482015 33.75252301 -23.61845454 36.24513176 -19.8125 38.61328125 C-16.34595186 39.75176864 -13.33035898 40.15343385 -9.84765625 38.9140625 C-6.38331114 37.0610407 -3.53608242 35.15620067 -1.8125 31.61328125 C-0.73000872 27.19028953 -0.44937579 23.72401414 -1.875 19.36328125 C-4.60794065 15.48426872 -7.13150052 12.11449103 -12.02734375 11.19921875 C-18.39195816 10.96623786 -21.87195083 12.41049571 -26.125 17.23828125 Z " fill="#3FB5DC" transform="translate(64.8125,4.38671875)"/>
<path d="M0 0 C2.65656032 2.15845526 2.92904589 3.58314463 3.5 6.9375 C2.64187017 12.19354518 -1.73430446 14.87819535 -5.828125 17.91015625 C-7.29860694 18.96579695 -8.77275253 20.01634785 -10.25 21.0625 C-11.03270264 21.62251709 -11.81540527 22.18253418 -12.62182617 22.75952148 C-18.86690026 27.22010992 -25.13790844 31.64539097 -31.42871094 36.04125977 C-32.08774414 36.50330811 -32.74677734 36.96535645 -33.42578125 37.44140625 C-34.04275879 37.87340332 -34.65973633 38.30540039 -35.29541016 38.75048828 C-36.85292651 39.89219105 -38.32890023 41.14304006 -39.79296875 42.40234375 C-40.52128906 42.92957031 -41.24960937 43.45679688 -42 44 C-42.99 43.67 -43.98 43.34 -45 43 C-44.35933594 42.3709375 -43.71867187 41.741875 -43.05859375 41.09375 C-33.2858363 31.99828845 -33.2858363 31.99828845 -26 21 C-26.66 20.01 -27.32 19.02 -28 18 C-27.9765625 16.0546875 -27.9765625 16.0546875 -27 14 C-24.5234375 12.0703125 -24.5234375 12.0703125 -21.375 10.125 C-17.67963216 7.79246285 -14.36788336 5.55987623 -11.25 2.5 C-7.55280393 -0.81660235 -4.83962557 -0.80660426 0 0 Z " fill="#54B8CF" transform="translate(98,50)"/>
<path d="M0 0 C4.96342307 1.59986064 8.70198762 4.52539832 12.8125 7.625 C13.50537109 8.140625 14.19824219 8.65625 14.91210938 9.1875 C16.61173663 10.45342926 18.30637435 11.72605265 20 13 C25.56776968 9.92143246 30.56560147 6.44834537 35.64453125 2.609375 C38 1 38 1 40 1 C41.75 3.25 41.75 3.25 43 6 C41.80407889 9.30138053 39.77423419 11.52333163 37.375 14.0390625 C36.66859375 14.78414062 35.9621875 15.52921875 35.234375 16.296875 C34.49703125 17.06515625 33.7596875 17.8334375 33 18.625 C31.89398438 19.78902344 31.89398438 19.78902344 30.765625 20.9765625 C28.19921592 23.67410197 25.63284691 26.36715309 23 29 C18.739336 28.86076261 16.50292715 25.83257148 13.6875 22.9375 C13.20474609 22.44306396 12.72199219 21.94862793 12.22460938 21.43920898 C8.33502951 17.42564552 4.54392669 13.32397577 1 9 C0.42636719 8.32324219 -0.14726562 7.64648438 -0.73828125 6.94921875 C-1.36283203 5.98435547 -1.36283203 5.98435547 -2 5 C-1.1875 2.25 -1.1875 2.25 0 0 Z " fill="#74C4DA" transform="translate(30,65)"/>
<path d="M0 0 C3.3125 -0.25 3.3125 -0.25 7 0 C9.68078861 2.40859978 10.00549401 4.03873407 10.51513672 7.63183594 C10.58877895 9.08184991 10.64246136 10.53296951 10.6796875 11.984375 C10.70153107 12.75879944 10.72337463 13.53322388 10.74588013 14.33111572 C10.78291923 15.96828956 10.81094244 17.60568888 10.83056641 19.24316406 C10.87467334 21.73157079 10.99338524 24.20956726 11.11328125 26.6953125 C11.41456781 38.30114024 11.41456781 38.30114024 7.59472656 42.88867188 C3.88014329 45.63449967 0.37600354 47.54133215 -4 49 C-4.10887507 46.31139069 -4.18770594 43.62726842 -4.25 40.9375 C-4.28351563 40.18533203 -4.31703125 39.43316406 -4.3515625 38.65820312 C-4.45230255 32.84046511 -3.10894208 29.88794782 0 25 C1.74882478 20.70541763 2.27203781 17.12794062 2.25 12.5 C2.25515625 11.4171875 2.2603125 10.334375 2.265625 9.21875 C1.98879794 5.86425744 1.19052385 3.13693587 0 0 Z " fill="#2698BC" transform="translate(74,16)"/>
<path d="M0 0 C1.4540625 0.0309375 1.4540625 0.0309375 2.9375 0.0625 C2.793125 0.66835938 2.64875 1.27421875 2.5 1.8984375 C0.53379532 10.77366698 -0.72522132 17.54973166 3.9375 25.6875 C8.02279399 33.03335727 7.49537948 39.92159202 6.9375 48.0625 C-5.5625 41.0625 -5.5625 41.0625 -7.0625 38.0625 C-7.2981996 33.54956684 -7.29092295 29.03276544 -7.30273438 24.5144043 C-7.31241811 22.26898855 -7.34342957 20.02449688 -7.375 17.77929688 C-7.38153252 16.34635959 -7.38678202 14.91341577 -7.390625 13.48046875 C-7.3999707 12.17875732 -7.40931641 10.8770459 -7.41894531 9.53588867 C-6.90045376 4.48343706 -5.41379662 0.11048565 0 0 Z " fill="#389FC0" transform="translate(23.0625,15.9375)"/>
<path d="M0 0 C-0.144375 0.60585938 -0.28875 1.21171875 -0.4375 1.8359375 C-1.85905914 8.25269753 -3.45858898 15.64080792 -1.3125 22.0546875 C-1 24 -1 24 -2.14453125 25.921875 C-2.69496094 26.52515625 -3.24539062 27.1284375 -3.8125 27.75 C-4.62654297 28.67039062 -4.62654297 28.67039062 -5.45703125 29.609375 C-7 31 -7 31 -9 31 C-9.07421454 27.06739056 -9.12863136 23.13505278 -9.16479492 19.2019043 C-9.18728333 17.20672299 -9.22540198 15.21173787 -9.26367188 13.21679688 C-9.27333984 11.96318359 -9.28300781 10.70957031 -9.29296875 9.41796875 C-9.3086792 8.26063232 -9.32438965 7.1032959 -9.34057617 5.91088867 C-9 3 -9 3 -7.6809082 1.1105957 C-5.16161635 -0.55392988 -2.9367884 -0.19578589 0 0 Z " fill="#40A3C9" transform="translate(26,16)"/>
<path d="M0 0 C2.64 1.98 5.28 3.96 8 6 C8.99 5.01 9.98 4.02 11 3 C11.66 3 12.32 3 13 3 C13.07476562 3.59167969 13.14953125 4.18335938 13.2265625 4.79296875 C13.94496771 9.1104432 14.50084056 12.10403431 18 14.9375 C18.99 15.618125 19.98 16.29875 21 17 C21.66 17.66 22.32 18.32 23 19 C19.77384085 19.34968858 18.42460306 19.32372219 15.796875 17.3203125 C15.12140625 16.59585938 14.4459375 15.87140625 13.75 15.125 C13.06421875 14.40570313 12.3784375 13.68640625 11.671875 12.9453125 C10 11 10 11 9 9 C6.75928906 10.00445663 5.12245015 10.87754985 3.375 12.625 C2.92125 13.07875 2.4675 13.5325 2 14 C1.34 14 0.68 14 0 14 C-0.99293628 11.02119115 -1.13406411 8.98398802 -1.125 5.875 C-1.12757812 4.98554688 -1.13015625 4.09609375 -1.1328125 3.1796875 C-1 1 -1 1 0 0 Z " fill="#4FB8D9" transform="translate(24,25)"/>
<path d="M0 0 C3.91939465 3.80411834 7.49102731 7.81576108 11 12 C4.77419355 13.43672457 4.77419355 13.43672457 1.5625 11.625 C-0.71129289 7.80502795 -0.33381714 4.33962276 0 0 Z " fill="#42B2CB" transform="translate(17,59)"/>
<path d="M0 0 C0.66 0 1.32 0 2 0 C1.39779006 6.38342541 1.39779006 6.38342541 -0.25 8.9375 C-2.58371852 10.35440053 -4.32136078 10.21718696 -7 10 C-5.63055898 7.05043472 -4.12169591 4.47531189 -2 2 C-1.34 2 -0.68 2 0 2 C0 1.34 0 0.68 0 0 Z " fill="#44B3CB" transform="translate(82,62)"/>
<path d="M0 0 C0.94875 0.04125 1.8975 0.0825 2.875 0.125 C2.215 2.435 1.555 4.745 0.875 7.125 C-1.105 6.465 -3.085 5.805 -5.125 5.125 C-5.125 0.85616396 -4.22482433 0.16899297 0 0 Z " fill="#369DC8" transform="translate(23.125,15.875)"/>
<path d="M0 0 C0.33 0 0.66 0 1 0 C1 3.63 1 7.26 1 11 C0.34 11 -0.32 11 -1 11 C-2.38550197 8.22899606 -2.1877467 6.0665294 -2 3 C-1.34 2.01 -0.68 1.02 0 0 Z " fill="#3BB4CE" transform="translate(3,51)"/>
<path d="M0 0 C2.9719385 1.12451727 5.33440687 2.22293791 8 4 C7.67 5.32 7.34 6.64 7 8 C5.83035398 6.8572081 4.66435444 5.71068285 3.5 4.5625 C2.8503125 3.92441406 2.200625 3.28632812 1.53125 2.62890625 C0 1 0 1 0 0 Z " fill="#64C0D8" transform="translate(9,50)"/>
</svg>
