<svg width="670" height="550" viewBox="0 0 670 550" fill="none" xmlns="http://www.w3.org/2000/svg">
<g clip-path="url(#clip0_248_562)">
<path d="M498.528 430.352H290.789C287.472 430.348 284.292 429.029 281.947 426.684C279.602 424.339 278.283 421.159 278.279 417.842V268.483C278.283 265.166 279.602 261.986 281.947 259.641C284.292 257.296 287.472 255.977 290.789 255.973H498.528C501.844 255.977 505.024 257.296 507.369 259.641C509.714 261.986 511.033 265.166 511.037 268.483V417.842C511.033 421.159 509.714 424.339 507.369 426.684C505.024 429.029 501.844 430.348 498.528 430.352Z" fill="#E6E6E6"/>
<path d="M294.629 420.38H494.687C496.296 420.38 497.839 419.741 498.976 418.603C500.114 417.466 500.753 415.923 500.753 414.315V272.011C500.753 270.402 500.114 268.859 498.976 267.722C497.839 266.584 496.296 265.945 494.687 265.945H294.629C293.02 265.945 291.477 266.584 290.34 267.722C289.202 268.859 288.563 270.402 288.563 272.011V414.315C288.563 415.923 289.202 417.466 290.34 418.603C291.477 419.741 293.02 420.38 294.629 420.38Z" fill="white"/>
<path d="M220.248 229.835H12.5098C9.19314 229.831 6.0134 228.512 3.66817 226.167C1.32294 223.822 0.00374649 220.642 0 217.325V67.966C0.00374448 64.6493 1.32294 61.4696 3.66817 59.1243C6.0134 56.7791 9.19314 55.4599 12.5098 55.4562H220.248C223.565 55.4599 226.744 56.7791 229.09 59.1243C231.435 61.4696 232.754 64.6493 232.758 67.966V217.325C232.754 220.642 231.435 223.822 229.09 226.167C226.744 228.512 223.565 229.831 220.248 229.835Z" fill="#E6E6E6"/>
<path d="M16.3497 219.863H216.408C218.017 219.863 219.56 219.224 220.697 218.086C221.835 216.949 222.474 215.406 222.474 213.798V71.4936C222.474 69.8849 221.835 68.3422 220.697 67.2047C219.56 66.0673 218.017 65.4282 216.408 65.4282H16.3497C14.7411 65.4282 13.1983 66.0673 12.0609 67.2047C10.9234 68.3422 10.2844 69.8849 10.2844 71.4936V213.798C10.2844 215.406 10.9234 216.949 12.0609 218.086C13.1983 219.224 14.7411 219.863 16.3497 219.863Z" fill="white"/>
<path d="M470.841 310.162H343.051C342.451 310.162 341.858 310.28 341.304 310.509C340.75 310.739 340.247 311.075 339.823 311.499C339.4 311.922 339.063 312.426 338.834 312.979C338.605 313.533 338.487 314.126 338.487 314.726C338.487 315.325 338.605 315.919 338.834 316.472C339.063 317.026 339.4 317.529 339.823 317.953C340.247 318.377 340.75 318.713 341.304 318.942C341.858 319.172 342.451 319.29 343.051 319.29H470.841C472.051 319.29 473.212 318.809 474.068 317.953C474.924 317.097 475.405 315.936 475.405 314.726C475.405 313.515 474.924 312.355 474.068 311.499C473.212 310.643 472.051 310.162 470.841 310.162Z" fill="#E6E6E6"/>
<path d="M343.051 338.248C342.451 338.248 341.858 338.366 341.304 338.595C340.75 338.824 340.247 339.161 339.823 339.584C339.4 340.008 339.063 340.511 338.834 341.065C338.605 341.619 338.487 342.212 338.487 342.811C338.487 343.411 338.605 344.004 338.834 344.558C339.063 345.112 339.4 345.615 339.823 346.039C340.247 346.462 340.75 346.799 341.304 347.028C341.858 347.257 342.451 347.375 343.051 347.375H470.841C472.051 347.375 473.212 346.895 474.068 346.039C474.924 345.183 475.405 344.022 475.405 342.811C475.405 341.601 474.924 340.44 474.068 339.584C473.212 338.728 472.051 338.248 470.841 338.248H343.051Z" fill="#E6E6E6"/>
<path d="M343.051 366.333C341.84 366.333 340.679 366.814 339.823 367.67C338.968 368.526 338.487 369.687 338.487 370.897C338.487 372.108 338.968 373.268 339.823 374.124C340.679 374.98 341.84 375.461 343.051 375.461H470.841C472.051 375.461 473.212 374.98 474.068 374.124C474.924 373.268 475.405 372.108 475.405 370.897C475.405 369.687 474.924 368.526 474.068 367.67C473.212 366.814 472.051 366.333 470.841 366.333H343.051Z" fill="#E6E6E6"/>
<path d="M318.827 320.694C321.929 320.694 324.444 318.179 324.444 315.077C324.444 311.975 321.929 309.46 318.827 309.46C315.724 309.46 313.209 311.975 313.209 315.077C313.209 318.179 315.724 320.694 318.827 320.694Z" fill="#0060AE"/>
<path d="M318.827 348.78C321.929 348.78 324.444 346.265 324.444 343.163C324.444 340.06 321.929 337.545 318.827 337.545C315.724 337.545 313.209 340.06 313.209 343.163C313.209 346.265 315.724 348.78 318.827 348.78Z" fill="#E6E6E6"/>
<path d="M318.827 376.865C321.929 376.865 324.444 374.351 324.444 371.248C324.444 368.146 321.929 365.631 318.827 365.631C315.724 365.631 313.209 368.146 313.209 371.248C313.209 374.351 315.724 376.865 318.827 376.865Z" fill="#E6E6E6"/>
<path d="M419.935 314.726C419.935 315.325 419.817 315.919 419.588 316.472C419.359 317.026 419.022 317.529 418.599 317.953C418.175 318.377 417.672 318.713 417.118 318.942C416.564 319.172 415.971 319.29 415.371 319.29H343.215C342.088 319.306 340.992 318.915 340.131 318.188C339.269 317.46 338.699 316.446 338.526 315.332C338.441 314.688 338.495 314.032 338.683 313.41C338.871 312.787 339.19 312.212 339.618 311.723C340.046 311.234 340.574 310.841 341.166 310.572C341.758 310.303 342.4 310.163 343.051 310.162H415.371C416.582 310.162 417.743 310.643 418.599 311.498C419.454 312.354 419.935 313.515 419.935 314.726Z" fill="#0060AE"/>
<path d="M394.658 236.788C404.741 236.788 412.914 228.614 412.914 218.532C412.914 208.45 404.741 200.276 394.658 200.276C384.576 200.276 376.402 208.45 376.402 218.532C376.402 228.614 384.576 236.788 394.658 236.788Z" fill="#E6E6E6"/>
<path d="M403.668 219.994C404.476 215.018 401.096 210.33 396.12 209.522C391.144 208.715 386.456 212.094 385.648 217.07C384.841 222.046 388.22 226.735 393.196 227.542C398.172 228.35 402.861 224.97 403.668 219.994Z" fill="white"/>
<path d="M31.1386 138.309C29.9391 138.309 28.7886 138.785 27.9404 139.634C27.0922 140.482 26.6157 141.632 26.6157 142.832C26.6157 144.031 27.0922 145.182 27.9404 146.03C28.7886 146.878 29.9391 147.355 31.1386 147.355H201.619C202.819 147.355 203.969 146.878 204.818 146.03C205.666 145.182 206.142 144.031 206.142 142.832C206.142 141.632 205.666 140.482 204.818 139.634C203.969 138.785 202.819 138.309 201.619 138.309H31.1386Z" fill="#E6E6E6"/>
<path d="M31.1386 166.143C29.9391 166.143 28.7886 166.619 27.9404 167.467C27.0922 168.316 26.6157 169.466 26.6157 170.666C26.6157 171.865 27.0922 173.016 27.9404 173.864C28.7886 174.712 29.9391 175.189 31.1386 175.189H201.619C202.819 175.189 203.969 174.712 204.818 173.864C205.666 173.016 206.142 171.865 206.142 170.666C206.142 169.466 205.666 168.316 204.818 167.467C203.969 166.619 202.819 166.143 201.619 166.143H31.1386Z" fill="#E6E6E6"/>
<path d="M107.333 195.368C106.133 195.368 104.983 195.844 104.135 196.693C103.287 197.541 102.81 198.691 102.81 199.891C102.81 201.09 103.287 202.241 104.135 203.089C104.983 203.937 106.133 204.414 107.333 204.414H125.425C126.624 204.414 127.775 203.937 128.623 203.089C129.471 202.241 129.948 201.09 129.948 199.891C129.948 198.691 129.471 197.541 128.623 196.693C127.775 195.844 126.624 195.368 125.425 195.368H107.333Z" fill="#0060AE"/>
<path d="M92.1361 80.8775C91.7671 80.8778 91.4133 81.0246 91.1524 81.2855C90.8915 81.5464 90.7448 81.9001 90.7444 82.2691V117.597C90.7448 117.966 90.8915 118.32 91.1524 118.581C91.4133 118.841 91.7671 118.988 92.1361 118.989H140.622C140.991 118.988 141.345 118.841 141.606 118.581C141.867 118.32 142.013 117.966 142.014 117.597V82.2691C142.013 81.9001 141.867 81.5464 141.606 81.2855C141.345 81.0245 140.991 80.8778 140.622 80.8774L92.1361 80.8775Z" fill="#0060AE"/>
<path d="M116.379 103.68C120.606 103.68 124.033 100.253 124.033 96.0258C124.033 91.7985 120.606 88.3716 116.379 88.3716C112.152 88.3716 108.725 91.7985 108.725 96.0258C108.725 100.253 112.152 103.68 116.379 103.68Z" fill="white"/>
<path d="M128.904 115.509C128.907 116.719 128.62 117.912 128.069 118.989H104.689C104.093 117.822 103.807 116.521 103.858 115.212C103.908 113.903 104.294 112.628 104.979 111.511C105.663 110.394 106.623 109.471 107.766 108.831C108.909 108.191 110.198 107.855 111.508 107.855H121.25C123.279 107.854 125.225 108.659 126.66 110.093C128.096 111.527 128.903 113.472 128.904 115.501V115.509Z" fill="white"/>
<path d="M116.379 103.68C120.606 103.68 124.033 100.253 124.033 96.0258C124.033 91.7985 120.606 88.3716 116.379 88.3716C112.152 88.3716 108.725 91.7985 108.725 96.0258C108.725 100.253 112.152 103.68 116.379 103.68Z" fill="white"/>
<path d="M128.904 115.509C128.907 116.719 128.62 117.912 128.069 118.989H104.689C104.093 117.822 103.807 116.521 103.858 115.212C103.908 113.903 104.294 112.628 104.979 111.511C105.663 110.394 106.623 109.471 107.766 108.831C108.909 108.191 110.198 107.855 111.508 107.855H121.25C123.279 107.854 125.225 108.659 126.66 110.093C128.096 111.527 128.903 113.472 128.904 115.501V115.509Z" fill="white"/>
<path d="M116.379 36.1837C126.371 36.1837 134.471 28.0837 134.471 18.0918C134.471 8.09999 126.371 0 116.379 0C106.387 0 98.2871 8.09999 98.2871 18.0918C98.2871 28.0837 106.387 36.1837 116.379 36.1837Z" fill="#E6E6E6"/>
<path d="M116.379 27.1377C121.375 27.1377 125.425 23.0877 125.425 18.0918C125.425 13.0959 121.375 9.0459 116.379 9.0459C111.383 9.0459 107.333 13.0959 107.333 18.0918C107.333 23.0877 111.383 27.1377 116.379 27.1377Z" fill="#0060AE"/>
<path d="M567.201 539.24L558.533 539.239L554.411 505.807L567.204 505.809L567.201 539.24Z" fill="#FFB8B8"/>
<path d="M552.342 536.763H569.058V547.288H541.817C541.817 545.906 542.089 544.537 542.618 543.26C543.147 541.983 543.922 540.823 544.9 539.846C545.877 538.868 547.037 538.093 548.314 537.564C549.591 537.035 550.96 536.763 552.342 536.763Z" fill="#2F2E41"/>
<path d="M613.921 539.24L605.252 539.239L601.131 505.807L613.924 505.809L613.921 539.24Z" fill="#FFB8B8"/>
<path d="M599.061 536.763H615.777V547.288H588.536C588.536 545.906 588.809 544.537 589.338 543.26C589.866 541.983 590.642 540.823 591.619 539.846C592.596 538.868 593.757 538.093 595.034 537.564C596.31 537.035 597.679 536.763 599.061 536.763Z" fill="#2F2E41"/>
<path d="M588.536 301.573C598.82 301.573 607.157 293.236 607.157 282.952C607.157 272.668 598.82 264.33 588.536 264.33C578.252 264.33 569.915 272.668 569.915 282.952C569.915 293.236 578.252 301.573 588.536 301.573Z" fill="#FFB8B8"/>
<path d="M524.863 404.394C524.993 403.363 525.348 402.373 525.902 401.493C526.456 400.614 527.196 399.867 528.07 399.305C528.944 398.742 529.931 398.378 530.961 398.239C531.991 398.099 533.039 398.187 534.031 398.496L544.438 386.021L553.561 390.496L538.618 407.907C537.988 409.54 536.781 410.884 535.226 411.687C533.671 412.489 531.875 412.693 530.18 412.26C528.485 411.827 527.007 410.787 526.027 409.337C525.047 407.887 524.633 406.129 524.863 404.394Z" fill="#FFB8B8"/>
<path d="M614.428 417.011C613.985 416.071 613.753 415.045 613.749 414.006C613.745 412.967 613.968 411.939 614.404 410.996C614.84 410.052 615.478 409.216 616.272 408.545C617.066 407.875 617.998 407.387 619.001 407.115L621.09 391.004L631.191 389.886L627.921 412.596C628.265 414.312 627.968 416.094 627.086 417.606C626.204 419.117 624.798 420.252 623.135 420.797C621.472 421.341 619.667 421.256 618.063 420.558C616.458 419.861 615.165 418.599 614.428 417.011Z" fill="#FFB8B8"/>
<path d="M604.098 318.124C605.088 316.852 606.397 315.865 607.891 315.26C609.384 314.656 611.011 314.456 612.607 314.682C614.203 314.907 615.711 315.549 616.979 316.544C618.247 317.538 619.231 318.85 619.83 320.346L635.093 358.436C636.653 362.329 637.15 366.566 636.534 370.714L631.563 404.193C631.499 404.625 631.342 405.038 631.103 405.404C630.865 405.77 630.55 406.08 630.181 406.313C629.812 406.546 629.396 406.696 628.963 406.754C628.53 406.812 628.09 406.775 627.673 406.647L621.123 404.635C620.444 404.427 619.861 403.988 619.473 403.393C619.085 402.799 618.918 402.088 619.001 401.383C621.313 381.673 618.257 361.704 610.158 343.587L602.962 327.492C602.284 325.975 602.031 324.301 602.231 322.651C602.431 321 603.077 319.435 604.098 318.124Z" fill="#0060AE"/>
<path d="M593.07 301.573C595.873 301.633 598.656 301.1 601.238 300.008C603.82 298.916 606.141 297.29 608.05 295.237C609.959 293.184 611.411 290.75 612.313 288.096C613.214 285.441 613.543 282.626 613.278 279.835C613.014 277.045 612.162 274.341 610.778 271.903C609.395 269.465 607.511 267.348 605.251 265.69C602.99 264.032 600.405 262.871 597.664 262.283C594.923 261.695 592.089 261.694 589.347 262.28C585.252 259.794 580.491 258.121 575.719 258.546C570.947 258.972 566.228 261.805 564.444 266.251C562.659 270.697 564.576 276.557 569.013 278.364C571.858 279.523 575.07 278.961 578.106 278.494C581.141 278.027 584.453 277.722 587.095 279.288C589.737 280.854 590.924 285.054 588.558 287.013C587.304 288.092 586.408 289.528 585.991 291.129C585.573 292.73 585.653 294.42 586.22 295.974C587.409 299.05 590.655 301.52 593.07 301.573Z" fill="#2F2E41"/>
<path d="M616.174 403.658L619.477 529.013C619.488 529.431 619.412 529.847 619.255 530.234C619.098 530.621 618.862 530.972 618.563 531.264C618.264 531.556 617.908 531.783 617.516 531.93C617.125 532.078 616.708 532.143 616.291 532.122L605.409 531.567C604.715 531.531 604.054 531.258 603.537 530.794C603.02 530.329 602.678 529.701 602.569 529.014L589.626 447.595C589.571 447.246 589.395 446.928 589.131 446.695C588.866 446.462 588.528 446.328 588.176 446.317C587.823 446.306 587.478 446.419 587.199 446.635C586.92 446.851 586.726 447.158 586.649 447.502L569.129 525.894C569.036 526.313 568.854 526.708 568.597 527.051C568.339 527.395 568.012 527.68 567.636 527.888C567.26 528.095 566.844 528.221 566.416 528.255C565.988 528.29 565.558 528.234 565.153 528.09L554.354 527.431C553.73 527.209 553.195 526.788 552.832 526.233C552.469 525.678 552.298 525.019 552.345 524.358L561.772 402.471L616.174 403.658Z" fill="#2F2E41"/>
<path d="M621.475 344.118C623.296 325.122 609.329 307.94 590.294 306.588C582.092 306.006 569.359 305.798 565.162 316.548C552.517 348.932 574.652 348.145 567.026 376.203C559.4 404.261 552.664 405.869 563.128 407.895C573.592 409.921 620.648 421.881 618.716 402.132C617.528 389.994 619.657 363.067 621.475 344.118Z" fill="#0060AE"/>
<path d="M567.401 313.254C568.904 312.672 570.534 312.497 572.126 312.747C573.718 312.996 575.216 313.661 576.469 314.674C577.722 315.688 578.686 317.014 579.263 318.519C579.839 320.024 580.009 321.654 579.754 323.245L573.811 360.389C572.795 366.74 570.109 372.708 566.028 377.68L546.726 401.202C546.449 401.539 546.102 401.813 545.709 402.004C545.317 402.195 544.888 402.3 544.451 402.31C544.014 402.32 543.581 402.235 543.18 402.062C542.779 401.889 542.42 401.632 542.128 401.307L537.543 396.215C537.068 395.688 536.793 395.011 536.766 394.302C536.739 393.593 536.961 392.897 537.394 392.335L538.745 390.582C549.974 376.01 557.058 358.674 559.249 340.408L561.612 320.707C561.81 319.056 562.453 317.491 563.473 316.178C564.493 314.865 565.85 313.854 567.401 313.254Z" fill="#0060AE"/>
<path d="M669.242 549.085H473.634C473.433 549.085 473.24 549.005 473.098 548.863C472.956 548.721 472.876 548.528 472.876 548.327C472.876 548.126 472.956 547.933 473.098 547.791C473.24 547.649 473.433 547.569 473.634 547.569H669.242C669.443 547.569 669.636 547.649 669.778 547.791C669.92 547.933 670 548.126 670 548.327C670 548.528 669.92 548.721 669.778 548.863C669.636 549.005 669.443 549.085 669.242 549.085Z" fill="#CCCCCC"/>
</g>
<defs>
<clipPath id="clip0_248_562">
<rect width="670" height="549.085" fill="white"/>
</clipPath>
</defs>
</svg>
