<svg width="40" height="40" viewBox="0 0 40 40" fill="none" xmlns="http://www.w3.org/2000/svg">
<path d="M6.66675 29.9997C6.66675 28.2316 7.36913 26.5359 8.61937 25.2856C9.86961 24.0354 11.5653 23.333 13.3334 23.333H26.6667C28.4349 23.333 30.1305 24.0354 31.3808 25.2856C32.631 26.5359 33.3334 28.2316 33.3334 29.9997C33.3334 30.8837 32.9822 31.7316 32.3571 32.3567C31.732 32.9818 30.8841 33.333 30.0001 33.333H10.0001C9.11603 33.333 8.26818 32.9818 7.64306 32.3567C7.01794 31.7316 6.66675 30.8837 6.66675 29.9997Z" stroke="white" stroke-width="2" stroke-linejoin="round"/>
<path d="M20 16.6665C22.7614 16.6665 25 14.4279 25 11.6665C25 8.90508 22.7614 6.6665 20 6.6665C17.2386 6.6665 15 8.90508 15 11.6665C15 14.4279 17.2386 16.6665 20 16.6665Z" stroke="white" stroke-width="2"/>
</svg>
