<svg width="50" height="35" viewBox="0 0 50 35" fill="none" xmlns="http://www.w3.org/2000/svg">
<path d="M25.1609 0H25.4391C28.008 0.009209 41.0244 0.1013 44.534 1.02834C45.595 1.31127 46.5618 1.86274 47.3378 2.62766C48.1138 3.39258 48.6719 4.34415 48.9562 5.38727C49.2718 6.55374 49.4937 8.09778 49.6437 9.69094L49.675 10.0102L49.7437 10.8083L49.7687 11.1275C49.9719 13.9332 49.9969 16.5609 50 17.1349V17.3651C49.9969 17.9606 49.9688 20.7663 49.7437 23.6886L49.7187 24.0109L49.6906 24.3302C49.5343 26.086 49.3031 27.8296 48.9562 29.1127C48.6719 30.1559 48.1138 31.1074 47.3378 31.8723C46.5618 32.6373 45.595 33.1887 44.534 33.4717C40.9088 34.4294 27.1298 34.4969 25.2203 34.5H24.7766C23.8109 34.5 19.8169 34.4816 15.6291 34.3404L15.0978 34.322L14.8259 34.3097L14.2915 34.2882L13.7571 34.2667C10.2881 34.1163 6.98481 33.8738 5.46284 33.4686C4.40223 33.1859 3.43568 32.6349 2.6597 31.8706C1.88372 31.1062 1.32547 30.1553 1.04069 29.1127C0.693793 27.8327 0.462529 26.086 0.306269 24.3302L0.281268 24.0079L0.256266 23.6886C0.101142 21.6087 0.0156738 19.5243 0 17.4388L0 17.0612C0.00625039 16.4012 0.031252 14.1205 0.200013 11.6033L0.221889 11.2872L0.231264 11.1275L0.256266 10.8083L0.32502 10.0102L0.356272 9.69094C0.506282 8.09778 0.728171 6.55067 1.04382 5.38727C1.32812 4.34415 1.88616 3.39258 2.66217 2.62766C3.43818 1.86274 4.40498 1.31127 5.46597 1.02834C6.98794 0.629282 10.2913 0.383708 13.7602 0.230225L14.2915 0.208737L14.8291 0.19032L15.0978 0.181111L15.6322 0.159623C18.6065 0.065702 21.582 0.0135119 24.5578 0.00306981L25.1609 0ZM20.0013 9.85363V24.6433L32.9927 17.2515L20.0013 9.85363Z" fill="white"/>
</svg>
